<?xml version="1.0" encoding="iso-8859-1"?>
<!-- Generator: Adobe Illustrator 19.0.0, SVG Export Plug-In . SVG Version: 6.00 Build 0)  -->
<svg version="1.1" id="Layer_1" xmlns="http://www.w3.org/2000/svg" xmlns:xlink="http://www.w3.org/1999/xlink" x="0px" y="0px"
	 viewBox="0 0 504.123 504.123" style="enable-background:new 0 0 504.123 504.123;" xml:space="preserve">
<polygon style="fill:#D60949;" points="426.614,126.685 130.568,213.016 145.66,126.685 130.568,40.353 "/>
<polygon style="fill:#AA0440;" points="426.614,126.685 130.568,213.016 145.66,126.685 143.029,121.761 "/>
<path style="fill:#435651;" d="M149.756,489.637c0,8.003-6.475,14.486-14.478,14.486l0,0c-8.003,0-14.486-6.483-14.486-14.486
	V14.494C120.793,6.483,127.275,0,135.278,0l0,0c8.003,0,14.478,6.483,14.478,14.494V489.637z"/>
<path style="fill:#AA0440;" d="M193.048,489.677c0,7.979-6.459,14.446-14.446,14.446H91.955c-7.971,0-14.446-6.467-14.446-14.446
	l0,0c0-7.971,6.475-14.438,14.446-14.438h86.646C186.589,475.238,193.048,481.705,193.048,489.677L193.048,489.677z"/>
<g>
</g>
<g>
</g>
<g>
</g>
<g>
</g>
<g>
</g>
<g>
</g>
<g>
</g>
<g>
</g>
<g>
</g>
<g>
</g>
<g>
</g>
<g>
</g>
<g>
</g>
<g>
</g>
<g>
</g>
</svg>
